<svg viewBox="0 0 16 16" version="1.1" xmlns="http://www.w3.org/2000/svg" xmlns:xlink="http://www.w3.org/1999/xlink">
    <g stroke="none" stroke-width="1" fill="none" fill-rule="evenodd">
        <g transform="translate(-426.000000, -586.000000)">
            <g transform="translate(426.000000, 503.000000)">
                <g transform="translate(0.000000, 83.000000)">
                    <g>
                        <path d="M8,16 C12.418278,16 16,12.418278 16,8 C16,3.581722 12.418278,0 8,0 C3.581722,0 0,3.581722 0,8 C0,12.418278 3.581722,16 8,16 Z" fill="#FFFFFF"></path>
                        <path d="M8,16 C3.58171875,16 0,12.4182812 0,8 C0,3.58171875 3.58171875,0 8,0 C12.4182812,0 16,3.58171875 16,8 C16,12.4182812 12.4182812,16 8,16 L8,16 Z M10.5569689,4.25888412 L3.84441695,6.64329282 C3.84441695,6.64329282 2.34889521,7.48517983 4.47435331,8.47044734 C5.59333442,8.98917816 6.66856192,9.45297349 6.66856192,9.45297349 L7.87746694,11.871505 C7.87746694,11.871505 8.79726638,14.1315063 9.79670963,11.6050878 C10.4944226,9.84134528 11.3011408,7.40236181 11.9137633,5.69088559 C12.8417147,3.09856615 10.5569689,4.25888412 10.5569689,4.25888412 L10.5569689,4.25888412 Z" fill="#2D99E1"></path>
                    </g>
                </g>
            </g>
        </g>
    </g>
</svg>
