<svg xmlns="http://www.w3.org/2000/svg" viewBox="0 0 20 20">
  <g fill="#5e5e5e" fill-rule="evenodd">
    <path d="M19.82178 9.9109C19.82178 4.43725 15.38453 0 9.9109 0 4.43726 0 0 4.43726 0 9.9109c0 5.47363 4.43726 9.91088 9.9109 9.91088 5.47363 0 9.91088-4.43725 9.91088-9.91089zM2 9.9109C2 5.54182 5.54183 2 9.9109 2c4.36906 0 7.91088 3.54183 7.91088 7.9109 0 4.36906-3.54182 7.91088-7.91089 7.91088C5.54183 17.82178 2 14.27996 2 9.9109z"/>
    <path d="M14.19343 2.09585c-1.57768-.79537-2.4546.18385-2.21267 1.22037.26628 1.14084-.7268 1.15563-1.85328.96497-1.12647-.19066-1.16573 1.3465-.43562 1.49475 4.8399.98272 3.66704 1.5273 3.43142 1.9329-.6626 1.14062-3.35858-1.35326-5.0687-.50185-.27963.13922-1.08637 1.1586-.43163 2.30509.65474 1.1465 1.92568-.36727 2.67945 1.67993.48259 1.31069.40146 3.09426.83652 3.81915.43506.72489 1.45158.41175 1.53287.40351 1.318-.13358.4887-2.94233 1.318-3.54243 1.49514-1.08189-.15149-1.92942.20364-2.36016.35512-.43075 1.09131.63538 1.73188 0 1.61518-1.60214 1.06034.76752 2.94825.2286 0 0-3.49295-7.04633-4.68013-7.64483zM1.61123 6.694c2.39994 3.25334-.83418.80338 1.76521 4.76793.12783.19497 1.68292.08668 1.33307 1.81316-.34986 1.72649-1.56068.49864-2.4605 1.0057L1.61122 6.694zm4.6864 11.366c1.32384 0 1.90462-.7972 1.90462-.7972s.91844-.71626 1.76129 0c.99073.84192 2.69047-.24251 2.8748 1.01797L6.29764 18.06zM3.52342 3.72937c0 1.03581 1.06922.34581 1.51894.60551.44972.2597.31927.9082 1.00291.8508 1.72553-.14489.90845-2.58715.832-3.55948L3.52342 3.72937z"/>
  </g>
</svg>
