<svg xmlns="http://www.w3.org/2000/svg" xml:space="preserve" width="72" height="72"><defs><filter style="color-interpolation-filters:sRGB" id="a" x="0" width="1" y="0" height="1"><feGaussianBlur stdDeviation=".002"/></filter></defs><g style="stroke-width:1.00232;stroke-miterlimit:4;stroke-dasharray:none;filter:url(#a)" transform="translate(0 11) scale(.58824)"><path d="M119.878 13.3c-1.412-5.2-5.545-9.3-10.788-10.7C99.512 0 61.2 0 61.2 0S22.886 0 13.308 2.5C8.167 3.9 3.932 8.1 2.52 13.3 0 22.8 0 42.5 0 42.5s0 19.8 2.52 29.2C3.933 76.9 8.067 81 13.31 82.4c9.679 2.6 47.89 2.6 47.89 2.6s38.313 0 47.89-2.5c5.244-1.4 9.377-5.5 10.789-10.7 2.52-9.5 2.52-29.2 2.52-29.2s.101-19.8-2.52-29.3z" style="fill:red;stroke-width:1.00232;stroke-miterlimit:4;stroke-dasharray:none"/></g><path style="fill:#fff" d="M80.2 61.2 48.6 43v36.4z" transform="scale(.58824)"/></svg>